<mxfile host="Electron" modified="2024-05-16T10:54:57.747Z" agent="Mozilla/5.0 (Windows NT 10.0; Win64; x64) AppleWebKit/537.36 (KHTML, like Gecko) draw.io/24.2.5 Chrome/120.0.6099.109 Electron/28.1.0 Safari/537.36" etag="sldxrGfws8w4h7K4KdKP" version="24.2.5" type="device">
  <diagram name="Страница — 1" id="kAUvUItiK8mE_BLYwX-Q">
    <mxGraphModel dx="2049" dy="1206" grid="1" gridSize="10" guides="1" tooltips="1" connect="1" arrows="1" fold="1" page="1" pageScale="1" pageWidth="827" pageHeight="1169" math="0" shadow="0">
      <root>
        <mxCell id="0" />
        <mxCell id="1" parent="0" />
        <mxCell id="0zw5ValLD8nHDMh4dWsE-1" value="start" style="ellipse;whiteSpace=wrap;html=1;" vertex="1" parent="1">
          <mxGeometry x="250" y="220" width="120" height="40" as="geometry" />
        </mxCell>
        <mxCell id="0zw5ValLD8nHDMh4dWsE-2" value="" style="endArrow=classic;html=1;rounded=0;labelBackgroundColor=default;strokeColor=default;align=center;verticalAlign=middle;fontFamily=Helvetica;fontSize=11;fontColor=default;shape=connector;edgeStyle=orthogonalEdgeStyle;exitX=0.5;exitY=1;exitDx=0;exitDy=0;entryX=0.5;entryY=0;entryDx=0;entryDy=0;" edge="1" source="0zw5ValLD8nHDMh4dWsE-1" parent="1" target="0zw5ValLD8nHDMh4dWsE-5">
          <mxGeometry width="50" height="50" relative="1" as="geometry">
            <mxPoint x="360.29" y="330" as="sourcePoint" />
            <mxPoint x="310" y="330" as="targetPoint" />
          </mxGeometry>
        </mxCell>
        <mxCell id="0zw5ValLD8nHDMh4dWsE-3" style="edgeStyle=orthogonalEdgeStyle;rounded=0;orthogonalLoop=1;jettySize=auto;html=1;exitX=0;exitY=0.5;exitDx=0;exitDy=0;exitPerimeter=0;endArrow=none;endFill=0;strokeWidth=1;" edge="1" source="0zw5ValLD8nHDMh4dWsE-4" parent="1">
          <mxGeometry relative="1" as="geometry">
            <mxPoint x="310" y="280" as="targetPoint" />
            <mxPoint x="370" y="290" as="sourcePoint" />
            <Array as="points">
              <mxPoint x="379" y="280" />
            </Array>
          </mxGeometry>
        </mxCell>
        <mxCell id="0zw5ValLD8nHDMh4dWsE-4" value="Подключение файлов&amp;nbsp;&lt;div&gt;с функциями по работе&amp;nbsp;&lt;/div&gt;&lt;div&gt;с хэш-таблицами&lt;/div&gt;" style="strokeWidth=2;html=1;shape=mxgraph.flowchart.annotation_1;align=left;pointerEvents=1;" vertex="1" parent="1">
          <mxGeometry x="390" y="250" width="50" height="60" as="geometry" />
        </mxCell>
        <mxCell id="0zw5ValLD8nHDMh4dWsE-7" style="edgeStyle=orthogonalEdgeStyle;rounded=0;orthogonalLoop=1;jettySize=auto;html=1;exitX=0.5;exitY=1;exitDx=0;exitDy=0;entryX=0.5;entryY=0;entryDx=0;entryDy=0;entryPerimeter=0;" edge="1" parent="1" source="0zw5ValLD8nHDMh4dWsE-5" target="0zw5ValLD8nHDMh4dWsE-10">
          <mxGeometry relative="1" as="geometry">
            <mxPoint x="309.68965517241384" y="410.0000000000001" as="targetPoint" />
          </mxGeometry>
        </mxCell>
        <mxCell id="0zw5ValLD8nHDMh4dWsE-5" value="Инициализация навигационных и буферных переменных." style="rounded=1;whiteSpace=wrap;html=1;absoluteArcSize=1;arcSize=14;strokeWidth=2;" vertex="1" parent="1">
          <mxGeometry x="260" y="310" width="100" height="60" as="geometry" />
        </mxCell>
        <mxCell id="0zw5ValLD8nHDMh4dWsE-8" style="edgeStyle=orthogonalEdgeStyle;rounded=0;orthogonalLoop=1;jettySize=auto;html=1;exitX=1;exitY=0.5;exitDx=0;exitDy=0;exitPerimeter=0;" edge="1" source="0zw5ValLD8nHDMh4dWsE-10" parent="1" target="0zw5ValLD8nHDMh4dWsE-14">
          <mxGeometry relative="1" as="geometry">
            <mxPoint x="490" y="430" as="targetPoint" />
            <Array as="points">
              <mxPoint x="450" y="430" />
            </Array>
          </mxGeometry>
        </mxCell>
        <mxCell id="0zw5ValLD8nHDMh4dWsE-9" style="edgeStyle=orthogonalEdgeStyle;rounded=0;orthogonalLoop=1;jettySize=auto;html=1;exitX=0.5;exitY=1;exitDx=0;exitDy=0;exitPerimeter=0;" edge="1" source="0zw5ValLD8nHDMh4dWsE-10" parent="1">
          <mxGeometry relative="1" as="geometry">
            <mxPoint x="310" y="500" as="targetPoint" />
          </mxGeometry>
        </mxCell>
        <mxCell id="0zw5ValLD8nHDMh4dWsE-10" value="Выполнение до&amp;nbsp;&lt;div&gt;получения&lt;div&gt;сигнала окончания&lt;/div&gt;&lt;/div&gt;" style="strokeWidth=2;html=1;shape=mxgraph.flowchart.decision;whiteSpace=wrap;" vertex="1" parent="1">
          <mxGeometry x="210" y="390" width="200" height="80" as="geometry" />
        </mxCell>
        <mxCell id="0zw5ValLD8nHDMh4dWsE-11" value="1" style="text;html=1;strokeColor=none;fillColor=none;align=center;verticalAlign=middle;whiteSpace=wrap;rounded=0;" vertex="1" parent="1">
          <mxGeometry x="280" y="460" width="30" height="30" as="geometry" />
        </mxCell>
        <mxCell id="0zw5ValLD8nHDMh4dWsE-12" value="0" style="text;html=1;strokeColor=none;fillColor=none;align=center;verticalAlign=middle;whiteSpace=wrap;rounded=0;" vertex="1" parent="1">
          <mxGeometry x="409.28999999999996" y="400" width="30" height="30" as="geometry" />
        </mxCell>
        <mxCell id="0zw5ValLD8nHDMh4dWsE-13" value="{" style="text;html=1;strokeColor=none;fillColor=none;align=center;verticalAlign=middle;whiteSpace=wrap;rounded=0;" vertex="1" parent="1">
          <mxGeometry x="310" y="460" width="30" height="30" as="geometry" />
        </mxCell>
        <mxCell id="0zw5ValLD8nHDMh4dWsE-14" value="end;" style="ellipse;whiteSpace=wrap;html=1;" vertex="1" parent="1">
          <mxGeometry x="450.0000000000001" y="410.0000000000001" width="120" height="40" as="geometry" />
        </mxCell>
        <mxCell id="0zw5ValLD8nHDMh4dWsE-16" style="edgeStyle=orthogonalEdgeStyle;rounded=0;orthogonalLoop=1;jettySize=auto;html=1;exitX=0.5;exitY=1;exitDx=0;exitDy=0;" edge="1" parent="1" source="0zw5ValLD8nHDMh4dWsE-15">
          <mxGeometry relative="1" as="geometry">
            <mxPoint x="309.68965517241384" y="600" as="targetPoint" />
          </mxGeometry>
        </mxCell>
        <mxCell id="0zw5ValLD8nHDMh4dWsE-15" value="Вывод подсказки по навигации и ожидание вызова функции" style="shape=parallelogram;html=1;strokeWidth=2;perimeter=parallelogramPerimeter;whiteSpace=wrap;rounded=1;arcSize=12;size=0.16666666666666666;" vertex="1" parent="1">
          <mxGeometry x="230" y="500" width="160" height="60" as="geometry" />
        </mxCell>
        <mxCell id="0zw5ValLD8nHDMh4dWsE-17" style="edgeStyle=orthogonalEdgeStyle;rounded=0;orthogonalLoop=1;jettySize=auto;html=1;exitX=0.5;exitY=1;exitDx=0;exitDy=0;exitPerimeter=0;entryX=0;entryY=0.5;entryDx=0;entryDy=0;" edge="1" source="0zw5ValLD8nHDMh4dWsE-18" target="0zw5ValLD8nHDMh4dWsE-20" parent="1">
          <mxGeometry relative="1" as="geometry">
            <mxPoint x="310.4761904761905" y="809.9999999999995" as="targetPoint" />
          </mxGeometry>
        </mxCell>
        <mxCell id="0zw5ValLD8nHDMh4dWsE-18" value="switch: меню" style="strokeWidth=2;html=1;shape=mxgraph.flowchart.decision;whiteSpace=wrap;" vertex="1" parent="1">
          <mxGeometry x="215" y="599.9999999999995" width="190" height="60" as="geometry" />
        </mxCell>
        <mxCell id="0zw5ValLD8nHDMh4dWsE-19" style="edgeStyle=orthogonalEdgeStyle;rounded=0;orthogonalLoop=1;jettySize=auto;html=1;exitX=1;exitY=0.5;exitDx=0;exitDy=0;" edge="1" source="0zw5ValLD8nHDMh4dWsE-20" parent="1">
          <mxGeometry relative="1" as="geometry">
            <mxPoint x="310" y="380" as="targetPoint" />
            <Array as="points">
              <mxPoint x="480" y="690" />
              <mxPoint x="480" y="1130" />
              <mxPoint x="190" y="1130" />
              <mxPoint x="190" y="380" />
            </Array>
          </mxGeometry>
        </mxCell>
        <mxCell id="0zw5ValLD8nHDMh4dWsE-20" value="Генерация хэш-таблицы" style="rounded=1;whiteSpace=wrap;html=1;absoluteArcSize=1;arcSize=14;strokeWidth=2;" vertex="1" parent="1">
          <mxGeometry x="350" y="669.9999999999995" width="100" height="40" as="geometry" />
        </mxCell>
        <mxCell id="0zw5ValLD8nHDMh4dWsE-21" style="edgeStyle=orthogonalEdgeStyle;rounded=0;orthogonalLoop=1;jettySize=auto;html=1;exitX=0.5;exitY=1;exitDx=0;exitDy=0;exitPerimeter=0;entryX=0;entryY=0.5;entryDx=0;entryDy=0;" edge="1" parent="1" target="0zw5ValLD8nHDMh4dWsE-23" source="0zw5ValLD8nHDMh4dWsE-18">
          <mxGeometry relative="1" as="geometry">
            <mxPoint x="290.4761904761905" y="879.9999999999995" as="targetPoint" />
            <mxPoint x="290" y="730" as="sourcePoint" />
            <Array as="points">
              <mxPoint x="310" y="740" />
            </Array>
          </mxGeometry>
        </mxCell>
        <mxCell id="0zw5ValLD8nHDMh4dWsE-22" style="edgeStyle=orthogonalEdgeStyle;rounded=0;orthogonalLoop=1;jettySize=auto;html=1;exitX=1;exitY=0.5;exitDx=0;exitDy=0;endArrow=none;endFill=0;" edge="1" parent="1" source="0zw5ValLD8nHDMh4dWsE-23">
          <mxGeometry relative="1" as="geometry">
            <mxPoint x="480" y="740" as="targetPoint" />
          </mxGeometry>
        </mxCell>
        <mxCell id="0zw5ValLD8nHDMh4dWsE-23" value="Вывод таблицы" style="rounded=1;whiteSpace=wrap;html=1;absoluteArcSize=1;arcSize=14;strokeWidth=2;" vertex="1" parent="1">
          <mxGeometry x="350" y="719.9999999999995" width="100" height="40" as="geometry" />
        </mxCell>
        <mxCell id="0zw5ValLD8nHDMh4dWsE-24" style="edgeStyle=orthogonalEdgeStyle;rounded=0;orthogonalLoop=1;jettySize=auto;html=1;exitX=0.5;exitY=1;exitDx=0;exitDy=0;exitPerimeter=0;entryX=0;entryY=0.5;entryDx=0;entryDy=0;" edge="1" parent="1" target="0zw5ValLD8nHDMh4dWsE-26" source="0zw5ValLD8nHDMh4dWsE-18">
          <mxGeometry relative="1" as="geometry">
            <mxPoint x="290.4761904761905" y="929.9999999999995" as="targetPoint" />
            <mxPoint x="310" y="710" as="sourcePoint" />
            <Array as="points">
              <mxPoint x="310" y="790" />
            </Array>
          </mxGeometry>
        </mxCell>
        <mxCell id="0zw5ValLD8nHDMh4dWsE-25" style="edgeStyle=orthogonalEdgeStyle;rounded=0;orthogonalLoop=1;jettySize=auto;html=1;exitX=1;exitY=0.5;exitDx=0;exitDy=0;endArrow=none;endFill=0;" edge="1" parent="1" source="0zw5ValLD8nHDMh4dWsE-26">
          <mxGeometry relative="1" as="geometry">
            <mxPoint x="480" y="790" as="targetPoint" />
          </mxGeometry>
        </mxCell>
        <mxCell id="0zw5ValLD8nHDMh4dWsE-26" value="Поиск по ключу" style="rounded=1;whiteSpace=wrap;html=1;absoluteArcSize=1;arcSize=14;strokeWidth=2;" vertex="1" parent="1">
          <mxGeometry x="350" y="769.9999999999995" width="100" height="40" as="geometry" />
        </mxCell>
        <mxCell id="0zw5ValLD8nHDMh4dWsE-29" style="edgeStyle=orthogonalEdgeStyle;rounded=0;orthogonalLoop=1;jettySize=auto;html=1;exitX=0.5;exitY=1;exitDx=0;exitDy=0;exitPerimeter=0;entryX=0;entryY=0.5;entryDx=0;entryDy=0;" edge="1" parent="1" target="0zw5ValLD8nHDMh4dWsE-30" source="0zw5ValLD8nHDMh4dWsE-18">
          <mxGeometry relative="1" as="geometry">
            <mxPoint x="290.4761904761905" y="979.9999999999995" as="targetPoint" />
            <mxPoint x="310" y="710" as="sourcePoint" />
            <Array as="points">
              <mxPoint x="310" y="840" />
            </Array>
          </mxGeometry>
        </mxCell>
        <mxCell id="0zw5ValLD8nHDMh4dWsE-30" value="Добавление элемента" style="rounded=1;whiteSpace=wrap;html=1;absoluteArcSize=1;arcSize=14;strokeWidth=2;" vertex="1" parent="1">
          <mxGeometry x="350" y="819.9999999999995" width="100" height="40" as="geometry" />
        </mxCell>
        <mxCell id="0zw5ValLD8nHDMh4dWsE-31" style="edgeStyle=orthogonalEdgeStyle;rounded=0;orthogonalLoop=1;jettySize=auto;html=1;exitX=1;exitY=0.5;exitDx=0;exitDy=0;endArrow=none;endFill=0;" edge="1" parent="1">
          <mxGeometry relative="1" as="geometry">
            <mxPoint x="480" y="839.9" as="targetPoint" />
            <mxPoint x="450" y="839.9" as="sourcePoint" />
            <Array as="points">
              <mxPoint x="470" y="839.9" />
              <mxPoint x="470" y="839.9" />
            </Array>
          </mxGeometry>
        </mxCell>
        <mxCell id="0zw5ValLD8nHDMh4dWsE-32" style="edgeStyle=orthogonalEdgeStyle;rounded=0;orthogonalLoop=1;jettySize=auto;html=1;entryX=0;entryY=0.5;entryDx=0;entryDy=0;" edge="1" parent="1" target="0zw5ValLD8nHDMh4dWsE-33">
          <mxGeometry relative="1" as="geometry">
            <mxPoint x="290.4761904761905" y="1029.9999999999995" as="targetPoint" />
            <mxPoint x="310" y="660" as="sourcePoint" />
            <Array as="points">
              <mxPoint x="310" y="890" />
            </Array>
          </mxGeometry>
        </mxCell>
        <mxCell id="0zw5ValLD8nHDMh4dWsE-33" value="Удаление элемента" style="rounded=1;whiteSpace=wrap;html=1;absoluteArcSize=1;arcSize=14;strokeWidth=2;" vertex="1" parent="1">
          <mxGeometry x="350" y="869.9999999999995" width="100" height="40" as="geometry" />
        </mxCell>
        <mxCell id="0zw5ValLD8nHDMh4dWsE-34" style="edgeStyle=orthogonalEdgeStyle;rounded=0;orthogonalLoop=1;jettySize=auto;html=1;exitX=1;exitY=0.5;exitDx=0;exitDy=0;endArrow=none;endFill=0;" edge="1" parent="1">
          <mxGeometry relative="1" as="geometry">
            <mxPoint x="480" y="889.9" as="targetPoint" />
            <mxPoint x="450" y="889.9" as="sourcePoint" />
            <Array as="points">
              <mxPoint x="470" y="889.9" />
              <mxPoint x="470" y="889.9" />
            </Array>
          </mxGeometry>
        </mxCell>
        <mxCell id="0zw5ValLD8nHDMh4dWsE-35" value="Сохранение в файл" style="rounded=1;whiteSpace=wrap;html=1;absoluteArcSize=1;arcSize=14;strokeWidth=2;" vertex="1" parent="1">
          <mxGeometry x="350" y="919.9999999999995" width="100" height="40" as="geometry" />
        </mxCell>
        <mxCell id="0zw5ValLD8nHDMh4dWsE-36" style="edgeStyle=orthogonalEdgeStyle;rounded=0;orthogonalLoop=1;jettySize=auto;html=1;exitX=1;exitY=0.5;exitDx=0;exitDy=0;endArrow=none;endFill=0;" edge="1" parent="1">
          <mxGeometry relative="1" as="geometry">
            <mxPoint x="480" y="940" as="targetPoint" />
            <mxPoint x="449" y="939.9" as="sourcePoint" />
            <Array as="points">
              <mxPoint x="469" y="939.9" />
              <mxPoint x="469" y="939.9" />
            </Array>
          </mxGeometry>
        </mxCell>
        <mxCell id="0zw5ValLD8nHDMh4dWsE-37" value="Чтение из файла" style="rounded=1;whiteSpace=wrap;html=1;absoluteArcSize=1;arcSize=14;strokeWidth=2;" vertex="1" parent="1">
          <mxGeometry x="350" y="969.9999999999995" width="100" height="40" as="geometry" />
        </mxCell>
        <mxCell id="0zw5ValLD8nHDMh4dWsE-38" style="edgeStyle=orthogonalEdgeStyle;rounded=0;orthogonalLoop=1;jettySize=auto;html=1;endArrow=none;endFill=0;" edge="1" parent="1">
          <mxGeometry relative="1" as="geometry">
            <mxPoint x="480" y="990" as="targetPoint" />
            <mxPoint x="450" y="990" as="sourcePoint" />
            <Array as="points">
              <mxPoint x="468" y="989.9" />
              <mxPoint x="468" y="989.9" />
            </Array>
          </mxGeometry>
        </mxCell>
        <mxCell id="0zw5ValLD8nHDMh4dWsE-39" value="Отчистка таблицы" style="rounded=1;whiteSpace=wrap;html=1;absoluteArcSize=1;arcSize=14;strokeWidth=2;" vertex="1" parent="1">
          <mxGeometry x="350" y="1019.9999999999995" width="100" height="40" as="geometry" />
        </mxCell>
        <mxCell id="0zw5ValLD8nHDMh4dWsE-40" style="edgeStyle=orthogonalEdgeStyle;rounded=0;orthogonalLoop=1;jettySize=auto;html=1;endArrow=none;endFill=0;" edge="1" parent="1">
          <mxGeometry relative="1" as="geometry">
            <mxPoint x="480" y="1040" as="targetPoint" />
            <mxPoint x="450" y="1040" as="sourcePoint" />
            <Array as="points">
              <mxPoint x="468" y="1039.9" />
              <mxPoint x="468" y="1039.9" />
            </Array>
          </mxGeometry>
        </mxCell>
        <mxCell id="0zw5ValLD8nHDMh4dWsE-41" value="Завершение" style="rounded=1;whiteSpace=wrap;html=1;absoluteArcSize=1;arcSize=14;strokeWidth=2;" vertex="1" parent="1">
          <mxGeometry x="350" y="1069.9999999999995" width="100" height="40" as="geometry" />
        </mxCell>
        <mxCell id="0zw5ValLD8nHDMh4dWsE-42" style="edgeStyle=orthogonalEdgeStyle;rounded=0;orthogonalLoop=1;jettySize=auto;html=1;endArrow=none;endFill=0;" edge="1" parent="1">
          <mxGeometry relative="1" as="geometry">
            <mxPoint x="480" y="1090" as="targetPoint" />
            <mxPoint x="450" y="1090" as="sourcePoint" />
            <Array as="points">
              <mxPoint x="468" y="1089.9" />
              <mxPoint x="468" y="1089.9" />
            </Array>
          </mxGeometry>
        </mxCell>
        <mxCell id="0zw5ValLD8nHDMh4dWsE-43" style="edgeStyle=orthogonalEdgeStyle;rounded=0;orthogonalLoop=1;jettySize=auto;html=1;entryX=0;entryY=0.5;entryDx=0;entryDy=0;exitX=0.5;exitY=1;exitDx=0;exitDy=0;exitPerimeter=0;" edge="1" parent="1" source="0zw5ValLD8nHDMh4dWsE-18">
          <mxGeometry relative="1" as="geometry">
            <mxPoint x="350" y="940" as="targetPoint" />
            <mxPoint x="310" y="710" as="sourcePoint" />
            <Array as="points">
              <mxPoint x="310" y="940" />
            </Array>
          </mxGeometry>
        </mxCell>
        <mxCell id="0zw5ValLD8nHDMh4dWsE-44" style="edgeStyle=orthogonalEdgeStyle;rounded=0;orthogonalLoop=1;jettySize=auto;html=1;entryX=0;entryY=0.5;entryDx=0;entryDy=0;" edge="1" parent="1">
          <mxGeometry relative="1" as="geometry">
            <mxPoint x="350" y="990" as="targetPoint" />
            <mxPoint x="310" y="660" as="sourcePoint" />
            <Array as="points">
              <mxPoint x="310" y="990" />
            </Array>
          </mxGeometry>
        </mxCell>
        <mxCell id="0zw5ValLD8nHDMh4dWsE-45" style="edgeStyle=orthogonalEdgeStyle;rounded=0;orthogonalLoop=1;jettySize=auto;html=1;entryX=0;entryY=0.5;entryDx=0;entryDy=0;" edge="1" parent="1">
          <mxGeometry relative="1" as="geometry">
            <mxPoint x="350" y="1040" as="targetPoint" />
            <mxPoint x="310" y="660" as="sourcePoint" />
            <Array as="points">
              <mxPoint x="310" y="1040" />
            </Array>
          </mxGeometry>
        </mxCell>
        <mxCell id="0zw5ValLD8nHDMh4dWsE-46" style="edgeStyle=orthogonalEdgeStyle;rounded=0;orthogonalLoop=1;jettySize=auto;html=1;entryX=0;entryY=0.5;entryDx=0;entryDy=0;exitX=0.5;exitY=1;exitDx=0;exitDy=0;exitPerimeter=0;" edge="1" parent="1" source="0zw5ValLD8nHDMh4dWsE-18">
          <mxGeometry relative="1" as="geometry">
            <mxPoint x="350" y="1090" as="targetPoint" />
            <mxPoint x="310" y="860" as="sourcePoint" />
            <Array as="points">
              <mxPoint x="310" y="1090" />
            </Array>
          </mxGeometry>
        </mxCell>
      </root>
    </mxGraphModel>
  </diagram>
</mxfile>
